<svg xmlns="http://www.w3.org/2000/svg" id="Wide · Diff hidden" width="1900" height="1234" viewBox="0 0 1900 1234">
<rect x="0" y="0" width="1900" height="1234" id="window" fill="#181c22"/>
<g id="TopBar">
<g id="RepoChip">
<g id="icon/folderOpen" transform="translate(25,15) scale(0.5833)"><path d="M19,20H4C2.89,20 2,19.1 2,18V6C2,4.89 2.89,4 4,4H10L12,6H19A2,2 0 0,1 21,8H21L4,8V18L6.14,10H23.21L20.93,18.5C20.7,19.37 19.92,20 19,20Z" fill="#e0e6ed"/></g>
<text x="44" y="26.3" font-family="JetBrains Mono" font-size="12" font-weight="400" fill="#e0e6ed" id="label" xml:space="preserve">omagit</text>
<g id="icon/chevron" transform="translate(91.75,16.75) scale(0.4375)"><path d="M7.41,8.58L12,13.17L16.59,8.58L18,10L12,16L6,10L7.41,8.58Z" fill="#e0e6ed" fill-opacity="0.7"/></g>
</g>
<g id="BranchChip">
<g id="icon/branch" transform="translate(124,15) scale(0.5833)"><path d="M13,14C9.64,14 8.54,15.35 8.18,16.24C9.25,16.7 10,17.76 10,19A3,3 0 0,1 7,22A3,3 0 0,1 4,19C4,17.69 4.83,16.58 6,16.17V7.83C4.83,7.42 4,6.31 4,5A3,3 0 0,1 7,2A3,3 0 0,1 10,5C10,6.31 9.17,7.42 8,7.83V13.12C8.88,12.47 10.16,12 12,12C14.67,12 15.56,10.66 15.85,9.77C14.77,9.32 14,8.25 14,7A3,3 0 0,1 17,4A3,3 0 0,1 20,7C20,8.34 19.12,9.5 17.91,9.86C17.65,11.29 16.68,14 13,14M7,18A1,1 0 0,0 6,19A1,1 0 0,0 7,20A1,1 0 0,0 8,19A1,1 0 0,0 7,18M7,4A1,1 0 0,0 6,5A1,1 0 0,0 7,6A1,1 0 0,0 8,5A1,1 0 0,0 7,4M17,6A1,1 0 0,0 16,7A1,1 0 0,0 17,8A1,1 0 0,0 18,7A1,1 0 0,0 17,6Z" fill="#4ecdc4"/></g>
<text x="143" y="26.3" font-family="JetBrains Mono" font-size="12" font-weight="700" fill="#e0e6ed" id="label" xml:space="preserve">main</text>
<g id="icon/chevron" transform="translate(176.75,16.75) scale(0.4375)"><path d="M7.41,8.58L12,13.17L16.59,8.58L18,10L12,16L6,10L7.41,8.58Z" fill="#e0e6ed" fill-opacity="0.7"/></g>
</g>
<g id="BranchChip/label-accent">
<text x="143" y="26.3" font-family="JetBrains Mono" font-size="12" font-weight="700" fill="#4ecdc4" xml:space="preserve">main</text>
</g>
<g id="Toggle/diff pane">
<g id="icon/dockRight" transform="translate(1863,15) scale(0.5833)"><path d="M20 4H4A2 2 0 0 0 2 6V18A2 2 0 0 0 4 20H20A2 2 0 0 0 22 18V6A2 2 0 0 0 20 4M15 18H4V6H15Z" fill="#e0e6ed"/></g>
</g>
<g id="Toggle/mini">
<g id="icon/mini" transform="translate(1831,15) scale(0.5833)"><path d="M3,5V19H22V5H3M5,7H20V11H5V7M5,17V13H9V17H5M11,17V13H20V17H11Z" fill="#e0e6ed"/></g>
</g>
<rect x="1816" y="14" width="1" height="16" fill="#e0e6ed" fill-opacity="0.2"/>
<g id="Sync/Merge">
<rect x="1736" y="8" width="72" height="28" id="fill" fill="#e0e6ed" fill-opacity="0.04"/>
<rect x="1736.5" y="8.5" width="71" height="27" id="border" fill="none" stroke="#e0e6ed" stroke-width="1" stroke-opacity="0.4"/>
<g id="icon/merge" transform="translate(1745,15) scale(0.5833)"><path d="M7,3A3,3 0 0,1 10,6C10,7.29 9.19,8.39 8.04,8.81C8.58,13.81 13.08,14.77 15.19,14.96C15.61,13.81 16.71,13 18,13A3,3 0 0,1 21,16A3,3 0 0,1 18,19C16.69,19 15.57,18.16 15.16,17C10.91,16.8 9.44,15.19 8,13.39V15.17C9.17,15.58 10,16.69 10,18A3,3 0 0,1 7,21A3,3 0 0,1 4,18C4,16.69 4.83,15.58 6,15.17V8.83C4.83,8.42 4,7.31 4,6A3,3 0 0,1 7,3M7,5A1,1 0 0,0 6,6A1,1 0 0,0 7,7A1,1 0 0,0 8,6A1,1 0 0,0 7,5M7,17A1,1 0 0,0 6,18A1,1 0 0,0 7,19A1,1 0 0,0 8,18A1,1 0 0,0 7,17M18,15A1,1 0 0,0 17,16A1,1 0 0,0 18,17A1,1 0 0,0 19,16A1,1 0 0,0 18,15Z" fill="#e0e6ed"/></g>
<text x="1764" y="26.3" font-family="JetBrains Mono" font-size="12" font-weight="400" fill="#e0e6ed" id="label" xml:space="preserve">Merge</text>
</g>
<g id="Sync/Fetch">
<rect x="1656" y="8" width="72" height="28" id="fill" fill="#e0e6ed" fill-opacity="0.04"/>
<rect x="1656.5" y="8.5" width="71" height="27" id="border" fill="none" stroke="#e0e6ed" stroke-width="1" stroke-opacity="0.4"/>
<g id="icon/fetch" transform="translate(1665,15) scale(0.5833)"><path d="M6.5 20Q4.22 20 2.61 18.43 1 16.85 1 14.58 1 12.63 2.17 11.1 3.35 9.57 5.25 9.15 5.68 7.35 7.38 5.73 9.07 4.1 11 4.1 11.83 4.1 12.41 4.69 13 5.28 13 6.1V12.15L14.6 10.6L16 12L12 16L8 12L9.4 10.6L11 12.15V6.1Q9.1 6.45 8.05 7.94 7 9.43 7 11H6.5Q5.05 11 4.03 12.03 3 13.05 3 14.5 3 15.95 4.03 17 5.05 18 6.5 18H18.5Q19.55 18 20.27 17.27 21 16.55 21 15.5 21 14.45 20.27 13.73 19.55 13 18.5 13H17V11Q17 9.8 16.45 8.76 15.9 7.73 15 7V4.68Q16.85 5.55 17.93 7.26 19 9 19 11 20.73 11.2 21.86 12.5 23 13.78 23 15.5 23 17.38 21.69 18.69 20.38 20 18.5 20M12 11.05Z" fill="#e0e6ed"/></g>
<text x="1684" y="26.3" font-family="JetBrains Mono" font-size="12" font-weight="400" fill="#e0e6ed" id="label" xml:space="preserve">Fetch</text>
</g>
<g id="Sync/Push">
<rect x="1583" y="8" width="65" height="28" id="fill" fill="#e0e6ed" fill-opacity="0.04"/>
<rect x="1583.5" y="8.5" width="64" height="27" id="border" fill="none" stroke="#e0e6ed" stroke-width="1" stroke-opacity="0.4"/>
<g id="icon/push" transform="translate(1592,15) scale(0.5833)"><path d="M9,16V10H5L12,3L19,10H15V16H9M5,20V18H19V20H5Z" fill="#e0e6ed"/></g>
<text x="1611" y="26.3" font-family="JetBrains Mono" font-size="12" font-weight="400" fill="#e0e6ed" id="label" xml:space="preserve">Push</text>
<rect x="1640" y="4" width="12" height="12" id="badge" fill="#4ecdc4"/>
<text x="1646" y="13.6" font-family="JetBrains Mono" font-size="10" font-weight="700" fill="#181c22" text-anchor="middle" xml:space="preserve">1</text>
</g>
<g id="Sync/Pull">
<rect x="1510" y="8" width="65" height="28" id="fill" fill="#e0e6ed" fill-opacity="0.04"/>
<rect x="1510.5" y="8.5" width="64" height="27" id="border" fill="none" stroke="#e0e6ed" stroke-width="1" stroke-opacity="0.4"/>
<g id="icon/pull" transform="translate(1519,15) scale(0.5833)"><path d="M5,20H19V18H5M19,9H15V3H9V9H5L12,16L19,9Z" fill="#e0e6ed"/></g>
<text x="1538" y="26.3" font-family="JetBrains Mono" font-size="12" font-weight="400" fill="#e0e6ed" id="label" xml:space="preserve">Pull</text>
<rect x="1567" y="4" width="12" height="12" id="badge" fill="#4ecdc4"/>
<text x="1573" y="13.6" font-family="JetBrains Mono" font-size="10" font-weight="700" fill="#181c22" text-anchor="middle" xml:space="preserve">2</text>
</g>
<g id="NavTabs">
<rect x="854" y="8" width="192" height="28" id="fill" fill="#e0e6ed" fill-opacity="0.04"/>
<g id="Segment/selected Changes">
<rect x="854" y="8" width="106" height="28" fill="#e0e6ed" fill-opacity="0.18"/>
<g id="icon/commit" transform="translate(863,15) scale(0.5833)"><path d="M17,12C17,14.42 15.28,16.44 13,16.9V21H11V16.9C8.72,16.44 7,14.42 7,12C7,9.58 8.72,7.56 11,7.1V3H13V7.1C15.28,7.56 17,9.58 17,12M12,9A3,3 0 0,0 9,12A3,3 0 0,0 12,15A3,3 0 0,0 15,12A3,3 0 0,0 12,9Z" fill="#4ecdc4"/></g>
<text x="882" y="26.3" font-family="JetBrains Mono" font-size="12" font-weight="700" fill="#4ecdc4" xml:space="preserve">Changes</text>
<rect x="936" y="14" width="16" height="16" fill="#4ecdc4" fill-opacity="1"/>
<text x="944" y="25.6" font-family="JetBrains Mono" font-size="10" font-weight="700" fill="#181c22" text-anchor="middle" xml:space="preserve">7</text>
</g>
<g id="Segment/normal History">
<g id="icon/history" transform="translate(969,15) scale(0.5833)"><path d="M13.5,8H12V13L16.28,15.54L17,14.33L13.5,12.25V8M13,3A9,9 0 0,0 4,12H1L4.96,16.03L9,12H6A7,7 0 0,1 13,5A7,7 0 0,1 20,12A7,7 0 0,1 13,19C11.07,19 9.32,18.21 8.06,16.94L6.64,18.36C8.27,20 10.5,21 13,21A9,9 0 0,0 22,12A9,9 0 0,0 13,3" fill="#e0e6ed"/></g>
<text x="988" y="26.3" font-family="JetBrains Mono" font-size="12" font-weight="400" fill="#e0e6ed" xml:space="preserve">History</text>
</g>
<rect x="960" y="8" width="1" height="28" fill="#e0e6ed" fill-opacity="0.4"/>
<rect x="854.5" y="8.5" width="191" height="27" id="border" fill="none" stroke="#e0e6ed" stroke-width="1" stroke-opacity="0.4"/>
</g>
<rect x="0" y="43" width="1900" height="1" fill="#e0e6ed" fill-opacity="0.12"/>
</g>
<g id="Footer">
<rect x="0" y="1206" width="1900" height="1" fill="#e0e6ed" fill-opacity="0.12"/>
<text x="16" y="1224.0" font-family="JetBrains Mono" font-size="11" font-weight="400" fill="#8791a6" xml:space="preserve">Fetched origin 2 min ago · ~/Projects/omagit</text>
<g id="Settings">
<g id="icon/cog" transform="translate(1833,1213) scale(0.5833)"><path d="M12,15.5A3.5,3.5 0 0,1 8.5,12A3.5,3.5 0 0,1 12,8.5A3.5,3.5 0 0,1 15.5,12A3.5,3.5 0 0,1 12,15.5M19.43,12.97C19.47,12.65 19.5,12.33 19.5,12C19.5,11.67 19.47,11.34 19.43,11L21.54,9.37C21.73,9.22 21.78,8.95 21.66,8.73L19.66,5.27C19.54,5.05 19.27,4.96 19.05,5.05L16.56,6.05C16.04,5.66 15.5,5.32 14.87,5.07L14.5,2.42C14.46,2.18 14.25,2 14,2H10C9.75,2 9.54,2.18 9.5,2.42L9.13,5.07C8.5,5.32 7.96,5.66 7.44,6.05L4.95,5.05C4.73,4.96 4.46,5.05 4.34,5.27L2.34,8.73C2.21,8.95 2.27,9.22 2.46,9.37L4.57,11C4.53,11.34 4.5,11.67 4.5,12C4.5,12.33 4.53,12.65 4.57,12.97L2.46,14.63C2.27,14.78 2.21,15.05 2.34,15.27L4.34,18.73C4.46,18.95 4.73,19.03 4.95,18.95L7.44,17.94C7.96,18.34 8.5,18.68 9.13,18.93L9.5,21.58C9.54,21.82 9.75,22 10,22H14C14.25,22 14.46,21.82 14.5,21.58L14.87,18.93C15.5,18.67 16.04,18.34 16.56,17.94L19.05,18.95C19.27,19.03 19.54,18.95 19.66,18.73L21.66,15.27C21.78,15.05 21.73,14.78 21.54,14.63L19.43,12.97Z" fill="#e0e6ed"/></g>
</g>
<g id="Keybindings">
<g id="icon/keyboard" transform="translate(1865,1213) scale(0.5833)"><path d="M4,5A2,2 0 0,0 2,7V17A2,2 0 0,0 4,19H20A2,2 0 0,0 22,17V7A2,2 0 0,0 20,5H4M4,7H20V17H4V7M5,8V10H7V8H5M8,8V10H10V8H8M11,8V10H13V8H11M14,8V10H16V8H14M17,8V10H19V8H17M5,11V13H7V11H5M8,11V13H10V11H8M11,11V13H13V11H11M14,11V13H16V11H14M17,11V13H19V11H17M8,14V16H16V14H8Z" fill="#e0e6ed"/></g>
</g>
</g>
<g id="CommitPage">
<text x="16" y="67.6" font-family="JetBrains Mono" font-size="10" font-weight="700" fill="#8791a6" id="Section/Changes" letter-spacing="0.8" xml:space="preserve">CHANGES · 5/7</text>
<g id="Refresh">
<g id="icon/refresh" transform="translate(1861,57) scale(0.5833)"><path d="M17.65,6.35C16.2,4.9 14.21,4 12,4A8,8 0 0,0 4,12A8,8 0 0,0 12,20C15.73,20 18.84,17.45 19.73,14H17.65C16.83,16.33 14.61,18 12,18A6,6 0 0,1 6,12A6,6 0 0,1 12,6C13.66,6 15.14,6.69 16.22,7.78L13,11H20V4L17.65,6.35Z" fill="#e0e6ed"/></g>
</g>
<rect x="1848" y="56" width="1" height="16" fill="#e0e6ed" fill-opacity="0.25"/>
<g id="ShowUnversioned">
<rect x="1816" y="52" width="24" height="24" id="fill" fill="#e0e6ed" fill-opacity="0.18"/>
<rect x="1816.5" y="52.5" width="23" height="23" id="border" fill="none" stroke="#e0e6ed" stroke-width="1" stroke-opacity="0.18"/>
<g id="icon/eye" transform="translate(1821,57) scale(0.5833)"><path d="M12,9A3,3 0 0,1 15,12A3,3 0 0,1 12,15A3,3 0 0,1 9,12A3,3 0 0,1 12,9M12,4.5C17,4.5 21.27,7.61 23,12C21.27,16.39 17,19.5 12,19.5C7,19.5 2.73,16.39 1,12C2.73,7.61 7,4.5 12,4.5M3.18,12C4.83,15.36 8.24,17.5 12,17.5C15.76,17.5 19.17,15.36 20.82,12C19.17,8.64 15.76,6.5 12,6.5C8.24,6.5 4.83,8.64 3.18,12Z" fill="#4ecdc4"/></g>
</g>
<rect x="1808" y="56" width="1" height="16" fill="#e0e6ed" fill-opacity="0.25"/>
<g id="FilesView/compact">
<g id="icon/list" transform="translate(1725,57) scale(0.5833)"><path d="M7,5H21V7H7V5M7,13V11H21V13H7M4,4.5A1.5,1.5 0 0,1 5.5,6A1.5,1.5 0 0,1 4,7.5A1.5,1.5 0 0,1 2.5,6A1.5,1.5 0 0,1 4,4.5M4,10.5A1.5,1.5 0 0,1 5.5,12A1.5,1.5 0 0,1 4,13.5A1.5,1.5 0 0,1 2.5,12A1.5,1.5 0 0,1 4,10.5M7,19V17H21V19H7M4,16.5A1.5,1.5 0 0,1 5.5,18A1.5,1.5 0 0,1 4,19.5A1.5,1.5 0 0,1 2.5,18A1.5,1.5 0 0,1 4,16.5Z" fill="#e0e6ed"/></g>
</g>
<g id="FilesView/tree">
<g id="icon/tree" transform="translate(1753,57) scale(0.5833)"><path d="M3,3H9V7H3V3M15,10H21V14H15V10M15,17H21V21H15V17M13,13H7V18H13V20H7L5,20V9H7V11H13V13Z" fill="#e0e6ed"/></g>
</g>
<g id="FilesView/table">
<rect x="1776" y="52" width="24" height="24" id="fill" fill="#e0e6ed" fill-opacity="0.18"/>
<rect x="1776.5" y="52.5" width="23" height="23" id="border" fill="none" stroke="#e0e6ed" stroke-width="1" stroke-opacity="0.18"/>
<g id="icon/table" transform="translate(1781,57) scale(0.5833)"><path d="M5,4H19A2,2 0 0,1 21,6V18A2,2 0 0,1 19,20H5A2,2 0 0,1 3,18V6A2,2 0 0,1 5,4M5,8V12H11V8H5M13,8V12H19V8H13M5,14V18H11V14H5M13,14V18H19V14H13Z" fill="#4ecdc4"/></g>
</g>
<g id="ChangesTable">
<rect x="16.5" y="84.5" width="1867" height="933" fill="none" stroke="#e0e6ed" stroke-width="1" stroke-opacity="0.4"/>
<rect x="16" y="107" width="1868" height="1" fill="#e0e6ed" fill-opacity="0.2"/>
<g id="CheckAll">
<rect x="24" y="88" width="16" height="16" fill="#e0e6ed" fill-opacity="0.18"/>
<rect x="24.5" y="88.5" width="15" height="15" fill="none" stroke="#4ecdc4" stroke-width="1" stroke-opacity="1"/>
<g id="icon/minus" transform="translate(25,89) scale(0.5833)"><path d="M19,13H5V11H19V13Z" fill="#4ecdc4"/></g>
</g>
<rect x="48" y="85" width="1" height="22" fill="#e0e6ed" fill-opacity="0.1"/>
<text x="56" y="99.6" font-family="JetBrains Mono" font-size="10" font-weight="700" fill="#8791a6" text-anchor="start" xml:space="preserve">Name</text>
<rect x="1540" y="85" width="1" height="22" fill="#e0e6ed" fill-opacity="0.1"/>
<text x="1548" y="99.6" font-family="JetBrains Mono" font-size="10" font-weight="700" fill="#8791a6" text-anchor="start" xml:space="preserve">Path</text>
<rect x="1668" y="85" width="1" height="22" fill="#e0e6ed" fill-opacity="0.1"/>
<text x="1704" y="99.6" font-family="JetBrains Mono" font-size="10" font-weight="700" fill="#8791a6" text-anchor="middle" xml:space="preserve">Status</text>
<rect x="1740" y="85" width="1" height="22" fill="#e0e6ed" fill-opacity="0.1"/>
<text x="1776" y="99.6" font-family="JetBrains Mono" font-size="10" font-weight="700" fill="#8791a6" text-anchor="middle" xml:space="preserve">+ −</text>
<rect x="1812" y="85" width="1" height="22" fill="#e0e6ed" fill-opacity="0.1"/>
<text x="1848" y="99.6" font-family="JetBrains Mono" font-size="10" font-weight="700" fill="#8791a6" text-anchor="middle" xml:space="preserve">Size</text>
<g id="Row/normal GitRepo.cpp">
<g id="Checkbox/checked">
<rect x="24" y="112" width="16" height="16" fill="#4ecdc4"/>
<g id="icon/check" transform="translate(25,113) scale(0.5833)"><path d="M21,7L9,19L3.5,13.5L4.91,12.09L9,16.17L19.59,5.59L21,7Z" fill="#181c22"/></g>
</g>
<text x="56" y="124.3" font-family="JetBrains Mono" font-size="12" font-weight="400" fill="#6a85ff" xml:space="preserve">GitRepo.cpp</text>
<text x="1548" y="124.3" font-family="JetBrains Mono" font-size="12" font-weight="400" fill="#8791a6" xml:space="preserve">src/core</text>
<text x="1704" y="124.0" font-family="JetBrains Mono" font-size="11" font-weight="400" fill="#6a85ff" text-anchor="middle" xml:space="preserve">Modified</text>
<text x="1774" y="124.0" font-family="JetBrains Mono" font-size="11" font-weight="400" fill="#4ecdc4" text-anchor="end" xml:space="preserve">+1</text>
<text x="1778" y="124.0" font-family="JetBrains Mono" font-size="11" font-weight="400" fill="#ff7b92" xml:space="preserve">−1</text>
<text x="1876" y="124.0" font-family="JetBrains Mono" font-size="11" font-weight="400" fill="#8791a6" text-anchor="end" xml:space="preserve">7.1 KiB</text>
</g>
<g id="Row/normal RemoteSync.cpp">
<g id="Checkbox/checked">
<rect x="24" y="136" width="16" height="16" fill="#4ecdc4"/>
<g id="icon/check" transform="translate(25,137) scale(0.5833)"><path d="M21,7L9,19L3.5,13.5L4.91,12.09L9,16.17L19.59,5.59L21,7Z" fill="#181c22"/></g>
</g>
<text x="56" y="148.3" font-family="JetBrains Mono" font-size="12" font-weight="400" fill="#6a85ff" xml:space="preserve">RemoteSync.cpp</text>
<text x="1548" y="148.3" font-family="JetBrains Mono" font-size="12" font-weight="400" fill="#8791a6" xml:space="preserve">src/core</text>
<text x="1704" y="148.0" font-family="JetBrains Mono" font-size="11" font-weight="400" fill="#6a85ff" text-anchor="middle" xml:space="preserve">Modified</text>
<text x="1774" y="148.0" font-family="JetBrains Mono" font-size="11" font-weight="400" fill="#4ecdc4" text-anchor="end" xml:space="preserve">+1</text>
<text x="1778" y="148.0" font-family="JetBrains Mono" font-size="11" font-weight="400" fill="#ff7b92" xml:space="preserve">−0</text>
<text x="1876" y="148.0" font-family="JetBrains Mono" font-size="11" font-weight="400" fill="#8791a6" text-anchor="end" xml:space="preserve">4.8 KiB</text>
</g>
<g id="Row/selected Toolbar.cpp">
<rect x="17" y="156" width="1866" height="24" fill="#e0e6ed" fill-opacity="0.08"/>
<g id="Checkbox/checked">
<rect x="24" y="160" width="16" height="16" fill="#4ecdc4"/>
<g id="icon/check" transform="translate(25,161) scale(0.5833)"><path d="M21,7L9,19L3.5,13.5L4.91,12.09L9,16.17L19.59,5.59L21,7Z" fill="#181c22"/></g>
</g>
<text x="56" y="172.3" font-family="JetBrains Mono" font-size="12" font-weight="400" fill="#4ecdc4" xml:space="preserve">Toolbar.cpp</text>
<text x="1548" y="172.3" font-family="JetBrains Mono" font-size="12" font-weight="400" fill="#8791a6" xml:space="preserve">src/ui</text>
<text x="1704" y="172.0" font-family="JetBrains Mono" font-size="11" font-weight="400" fill="#6a85ff" text-anchor="middle" xml:space="preserve">Modified</text>
<text x="1774" y="172.0" font-family="JetBrains Mono" font-size="11" font-weight="400" fill="#4ecdc4" text-anchor="end" xml:space="preserve">+4</text>
<text x="1778" y="172.0" font-family="JetBrains Mono" font-size="11" font-weight="400" fill="#ff7b92" xml:space="preserve">−2</text>
<text x="1876" y="172.0" font-family="JetBrains Mono" font-size="11" font-weight="400" fill="#8791a6" text-anchor="end" xml:space="preserve">6.2 KiB</text>
</g>
<g id="Row/normal README.md">
<g id="Checkbox/checked">
<rect x="24" y="184" width="16" height="16" fill="#4ecdc4"/>
<g id="icon/check" transform="translate(25,185) scale(0.5833)"><path d="M21,7L9,19L3.5,13.5L4.91,12.09L9,16.17L19.59,5.59L21,7Z" fill="#181c22"/></g>
</g>
<text x="56" y="196.3" font-family="JetBrains Mono" font-size="12" font-weight="400" fill="#ff7b92" xml:space="preserve">README.md</text>
<text x="1548" y="196.3" font-family="JetBrains Mono" font-size="12" font-weight="400" fill="#8791a6" xml:space="preserve">docs</text>
<text x="1704" y="196.0" font-family="JetBrains Mono" font-size="11" font-weight="400" fill="#ff7b92" text-anchor="middle" xml:space="preserve">Deleted</text>
<text x="1774" y="196.0" font-family="JetBrains Mono" font-size="11" font-weight="400" fill="#4ecdc4" text-anchor="end" xml:space="preserve">+0</text>
<text x="1778" y="196.0" font-family="JetBrains Mono" font-size="11" font-weight="400" fill="#ff7b92" xml:space="preserve">−60</text>
<text x="1876" y="196.0" font-family="JetBrains Mono" font-size="11" font-weight="400" fill="#8791a6" text-anchor="end" xml:space="preserve">2.0 KiB</text>
</g>
<g id="Row/normal ui_tests.cpp">
<g id="Checkbox/checked">
<rect x="24" y="208" width="16" height="16" fill="#4ecdc4"/>
<g id="icon/check" transform="translate(25,209) scale(0.5833)"><path d="M21,7L9,19L3.5,13.5L4.91,12.09L9,16.17L19.59,5.59L21,7Z" fill="#181c22"/></g>
</g>
<text x="56" y="220.3" font-family="JetBrains Mono" font-size="12" font-weight="400" fill="#b388eb" xml:space="preserve">ui_tests.cpp</text>
<text x="1548" y="220.3" font-family="JetBrains Mono" font-size="12" font-weight="400" fill="#8791a6" xml:space="preserve">tests</text>
<text x="1704" y="220.0" font-family="JetBrains Mono" font-size="11" font-weight="400" fill="#b388eb" text-anchor="middle" xml:space="preserve">Renamed</text>
<text x="1774" y="220.0" font-family="JetBrains Mono" font-size="11" font-weight="400" fill="#4ecdc4" text-anchor="end" xml:space="preserve">+1</text>
<text x="1778" y="220.0" font-family="JetBrains Mono" font-size="11" font-weight="400" fill="#ff7b92" xml:space="preserve">−0</text>
<text x="1876" y="220.0" font-family="JetBrains Mono" font-size="11" font-weight="400" fill="#8791a6" text-anchor="end" xml:space="preserve">9.4 KiB</text>
</g>
<g id="Row/normal notes.txt">
<g id="Checkbox/off">
<rect x="24" y="232" width="16" height="16" fill="#e0e6ed" fill-opacity="0.04"/>
<rect x="24.5" y="232.5" width="15" height="15" fill="none" stroke="#e0e6ed" stroke-width="1" stroke-opacity="0.4"/>
</g>
<text x="56" y="244.3" font-family="JetBrains Mono" font-size="12" font-weight="400" fill="#8791a6" xml:space="preserve">notes.txt</text>
<text x="1548" y="244.3" font-family="JetBrains Mono" font-size="12" font-weight="400" fill="#8791a6" xml:space="preserve"></text>
<text x="1704" y="244.0" font-family="JetBrains Mono" font-size="11" font-weight="400" fill="#8791a6" text-anchor="middle" xml:space="preserve">Untracked</text>
<text x="1876" y="244.0" font-family="JetBrains Mono" font-size="11" font-weight="400" fill="#8791a6" text-anchor="end" xml:space="preserve">6 B</text>
</g>
<g id="Row/normal NewWidget.cpp">
<g id="Checkbox/off">
<rect x="24" y="256" width="16" height="16" fill="#e0e6ed" fill-opacity="0.04"/>
<rect x="24.5" y="256.5" width="15" height="15" fill="none" stroke="#e0e6ed" stroke-width="1" stroke-opacity="0.4"/>
</g>
<text x="56" y="268.3" font-family="JetBrains Mono" font-size="12" font-weight="400" fill="#8791a6" xml:space="preserve">NewWidget.cpp</text>
<text x="1548" y="268.3" font-family="JetBrains Mono" font-size="12" font-weight="400" fill="#8791a6" xml:space="preserve">src/ui</text>
<text x="1704" y="268.0" font-family="JetBrains Mono" font-size="11" font-weight="400" fill="#8791a6" text-anchor="middle" xml:space="preserve">Untracked</text>
<text x="1876" y="268.0" font-family="JetBrains Mono" font-size="11" font-weight="400" fill="#8791a6" text-anchor="end" xml:space="preserve">9 B</text>
</g>
</g>
<text x="16" y="1045.6" font-family="JetBrains Mono" font-size="10" font-weight="700" fill="#8791a6" id="Section/Message" letter-spacing="0.8" xml:space="preserve">MESSAGE</text>
<g id="AgentSettings">
<g id="icon/cog" transform="translate(1861,1035) scale(0.5833)"><path d="M12,15.5A3.5,3.5 0 0,1 8.5,12A3.5,3.5 0 0,1 12,8.5A3.5,3.5 0 0,1 15.5,12A3.5,3.5 0 0,1 12,15.5M19.43,12.97C19.47,12.65 19.5,12.33 19.5,12C19.5,11.67 19.47,11.34 19.43,11L21.54,9.37C21.73,9.22 21.78,8.95 21.66,8.73L19.66,5.27C19.54,5.05 19.27,4.96 19.05,5.05L16.56,6.05C16.04,5.66 15.5,5.32 14.87,5.07L14.5,2.42C14.46,2.18 14.25,2 14,2H10C9.75,2 9.54,2.18 9.5,2.42L9.13,5.07C8.5,5.32 7.96,5.66 7.44,6.05L4.95,5.05C4.73,4.96 4.46,5.05 4.34,5.27L2.34,8.73C2.21,8.95 2.27,9.22 2.46,9.37L4.57,11C4.53,11.34 4.5,11.67 4.5,12C4.5,12.33 4.53,12.65 4.57,12.97L2.46,14.63C2.27,14.78 2.21,15.05 2.34,15.27L4.34,18.73C4.46,18.95 4.73,19.03 4.95,18.95L7.44,17.94C7.96,18.34 8.5,18.68 9.13,18.93L9.5,21.58C9.54,21.82 9.75,22 10,22H14C14.25,22 14.46,21.82 14.5,21.58L14.87,18.93C15.5,18.67 16.04,18.34 16.56,17.94L19.05,18.95C19.27,19.03 19.54,18.95 19.66,18.73L21.66,15.27C21.78,15.05 21.73,14.78 21.54,14.63L19.43,12.97Z" fill="#e0e6ed"/></g>
</g>
<g id="MessageBox">
<rect x="16" y="1062" width="1868" height="96" fill="#e0e6ed" fill-opacity="0.04"/>
<rect x="16.5" y="1062.5" width="1867" height="95" fill="none" stroke="#e0e6ed" stroke-width="1" stroke-opacity="0.4"/>
<text x="24" y="1082.3" font-family="JetBrains Mono" font-size="12" font-weight="400" fill="#8791a6" xml:space="preserve">Commit message</text>
<g id="Generate">
<g id="icon/sparkle" transform="translate(1861,1071) scale(0.5833)"><path d="M19,1L17.74,3.75L15,5L17.74,6.26L19,9L20.25,6.26L23,5L20.25,3.75M9,4L6.5,9.5L1,12L6.5,14.5L9,20L11.5,14.5L17,12L11.5,9.5M19,15L17.74,17.74L15,19L17.74,20.25L19,23L20.25,20.25L23,19L20.25,17.74" fill="#e0e6ed"/></g>
</g>
</g>
<g id="ActionBar">
<g id="AmendLastCommit">
<rect x="16" y="1176" width="16" height="16" fill="#e0e6ed" fill-opacity="0.04"/>
<rect x="16.5" y="1176.5" width="15" height="15" fill="none" stroke="#e0e6ed" stroke-width="1" stroke-opacity="0.4"/>
<text x="40" y="1188.3" font-family="JetBrains Mono" font-size="12" font-weight="400" fill="#e0e6ed" fill-opacity="1" xml:space="preserve">Amend last commit</text>
</g>
<text x="178" y="1188.0" font-family="JetBrains Mono" font-size="11" font-weight="400" fill="#8791a6" xml:space="preserve"></text>
<g id="Commit">
<rect x="1710" y="1170" width="174" height="28" id="fill" fill="#e0e6ed" fill-opacity="0.08"/>
<rect x="1710.5" y="1170.5" width="173" height="27" id="border" fill="none" stroke="#4ecdc4" stroke-width="1" stroke-opacity="1"/>
<g id="icon/commit" transform="translate(1727,1177) scale(0.5833)"><path d="M17,12C17,14.42 15.28,16.44 13,16.9V21H11V16.9C8.72,16.44 7,14.42 7,12C7,9.58 8.72,7.56 11,7.1V3H13V7.1C15.28,7.56 17,9.58 17,12M12,9A3,3 0 0,0 9,12A3,3 0 0,0 12,15A3,3 0 0,0 15,12A3,3 0 0,0 12,9Z" fill="#4ecdc4"/></g>
<text x="1746" y="1188.3" font-family="JetBrains Mono" font-size="12" font-weight="400" fill="#4ecdc4" id="label" xml:space="preserve">Commit 5 files  ⏎</text>
</g>
</g>
</g>
</svg>