<svg xmlns="http://www.w3.org/2000/svg" id="Eighth shallow · 470x400" width="470" height="400" viewBox="0 0 470 400">
<rect x="0" y="0" width="470" height="400" id="window" fill="#181c22"/>
<g id="TopBar">
<g id="RepoChip">
<g id="icon/folderOpen" transform="translate(17,15) scale(0.5833)"><path d="M19,20H4C2.89,20 2,19.1 2,18V6C2,4.89 2.89,4 4,4H10L12,6H19A2,2 0 0,1 21,8H21L4,8V18L6.14,10H23.21L20.93,18.5C20.7,19.37 19.92,20 19,20Z" fill="#e0e6ed"/></g>
<text x="36" y="26.3" font-family="JetBrains Mono" font-size="12" font-weight="400" fill="#e0e6ed" id="label" xml:space="preserve">omagit</text>
<g id="icon/chevron" transform="translate(83.75,16.75) scale(0.4375)"><path d="M7.41,8.58L12,13.17L16.59,8.58L18,10L12,16L6,10L7.41,8.58Z" fill="#e0e6ed" fill-opacity="0.7"/></g>
</g>
<g id="BranchChip">
<g id="icon/branch" transform="translate(116,15) scale(0.5833)"><path d="M13,14C9.64,14 8.54,15.35 8.18,16.24C9.25,16.7 10,17.76 10,19A3,3 0 0,1 7,22A3,3 0 0,1 4,19C4,17.69 4.83,16.58 6,16.17V7.83C4.83,7.42 4,6.31 4,5A3,3 0 0,1 7,2A3,3 0 0,1 10,5C10,6.31 9.17,7.42 8,7.83V13.12C8.88,12.47 10.16,12 12,12C14.67,12 15.56,10.66 15.85,9.77C14.77,9.32 14,8.25 14,7A3,3 0 0,1 17,4A3,3 0 0,1 20,7C20,8.34 19.12,9.5 17.91,9.86C17.65,11.29 16.68,14 13,14M7,18A1,1 0 0,0 6,19A1,1 0 0,0 7,20A1,1 0 0,0 8,19A1,1 0 0,0 7,18M7,4A1,1 0 0,0 6,5A1,1 0 0,0 7,6A1,1 0 0,0 8,5A1,1 0 0,0 7,4M17,6A1,1 0 0,0 16,7A1,1 0 0,0 17,8A1,1 0 0,0 18,7A1,1 0 0,0 17,6Z" fill="#4ecdc4"/></g>
<text x="135" y="26.3" font-family="JetBrains Mono" font-size="12" font-weight="700" fill="#e0e6ed" id="label" xml:space="preserve">main</text>
<g id="icon/chevron" transform="translate(168.75,16.75) scale(0.4375)"><path d="M7.41,8.58L12,13.17L16.59,8.58L18,10L12,16L6,10L7.41,8.58Z" fill="#e0e6ed" fill-opacity="0.7"/></g>
</g>
<g id="BranchChip/label-accent">
<text x="135" y="26.3" font-family="JetBrains Mono" font-size="12" font-weight="700" fill="#4ecdc4" xml:space="preserve">main</text>
</g>
<g id="More">
<rect x="434" y="8" width="28" height="28" id="fill" fill="#e0e6ed" fill-opacity="0.04"/>
<rect x="434.5" y="8.5" width="27" height="27" id="border" fill="none" stroke="#e0e6ed" stroke-width="1" stroke-opacity="0.4"/>
<g id="icon/dots" transform="translate(441,15) scale(0.5833)"><path d="M16,12A2,2 0 0,1 18,10A2,2 0 0,1 20,12A2,2 0 0,1 18,14A2,2 0 0,1 16,12M10,12A2,2 0 0,1 12,10A2,2 0 0,1 14,12A2,2 0 0,1 12,14A2,2 0 0,1 10,12M4,12A2,2 0 0,1 6,10A2,2 0 0,1 8,12A2,2 0 0,1 6,14A2,2 0 0,1 4,12Z" fill="#e0e6ed"/></g>
</g>
<g id="SyncDropdown">
<g id="icon/down" transform="translate(365,15) scale(0.5833)"><path d="M11,4H13V16L18.5,10.5L19.92,11.92L12,19.84L4.08,11.92L5.5,10.5L11,16V4Z" fill="#e0e6ed"/></g>
<text x="380" y="26.3" font-family="JetBrains Mono" font-size="12" font-weight="700" fill="#4ecdc4" xml:space="preserve">2</text>
<g id="icon/up" transform="translate(397,15) scale(0.5833)"><path d="M13,20H11V8L5.5,13.5L4.08,12.08L12,4.16L19.92,12.08L18.5,13.5L13,8V20Z" fill="#e0e6ed"/></g>
<text x="412" y="26.3" font-family="JetBrains Mono" font-size="12" font-weight="700" fill="#4ecdc4" xml:space="preserve">1</text>
</g>
<g id="NavTabs">
<rect x="204" y="8" width="116" height="28" id="fill" fill="#e0e6ed" fill-opacity="0.04"/>
<g id="Segment/selected commit">
<rect x="204" y="8" width="52" height="28" fill="#e0e6ed" fill-opacity="0.18"/>
<g id="icon/commit" transform="translate(213,15) scale(0.5833)"><path d="M17,12C17,14.42 15.28,16.44 13,16.9V21H11V16.9C8.72,16.44 7,14.42 7,12C7,9.58 8.72,7.56 11,7.1V3H13V7.1C15.28,7.56 17,9.58 17,12M12,9A3,3 0 0,0 9,12A3,3 0 0,0 12,15A3,3 0 0,0 15,12A3,3 0 0,0 12,9Z" fill="#4ecdc4"/></g>
<rect x="232" y="14" width="16" height="16" fill="#4ecdc4" fill-opacity="1"/>
<text x="240" y="25.6" font-family="JetBrains Mono" font-size="10" font-weight="700" fill="#181c22" text-anchor="middle" xml:space="preserve">7</text>
</g>
<g id="Segment/normal diff">
<g id="icon/diff" transform="translate(265,15) scale(0.5833)"><path d="M10,18H6V16H10V18M10,14H6V12H10V14M10,1V2H6C4.89,2 4,2.89 4,4V20A2,2 0 0,0 6,22H10V23H12V1H10M20,8V20C20,21.11 19.11,22 18,22H14V20H18V11H14V9H18.5L14,4.5V2L20,8M16,14H14V12H16V14M16,18H14V16H16V18Z" fill="#e0e6ed"/></g>
</g>
<rect x="256" y="8" width="1" height="28" fill="#e0e6ed" fill-opacity="0.4"/>
<g id="Segment/normal history">
<g id="icon/history" transform="translate(297,15) scale(0.5833)"><path d="M13.5,8H12V13L16.28,15.54L17,14.33L13.5,12.25V8M13,3A9,9 0 0,0 4,12H1L4.96,16.03L9,12H6A7,7 0 0,1 13,5A7,7 0 0,1 20,12A7,7 0 0,1 13,19C11.07,19 9.32,18.21 8.06,16.94L6.64,18.36C8.27,20 10.5,21 13,21A9,9 0 0,0 22,12A9,9 0 0,0 13,3" fill="#e0e6ed"/></g>
</g>
<rect x="288" y="8" width="1" height="28" fill="#e0e6ed" fill-opacity="0.4"/>
<rect x="204.5" y="8.5" width="115" height="27" id="border" fill="none" stroke="#e0e6ed" stroke-width="1" stroke-opacity="0.4"/>
</g>
<rect x="0" y="43" width="470" height="1" fill="#e0e6ed" fill-opacity="0.12"/>
</g>
<g id="CommitPage">
<g id="ChangesTable">
<rect x="8.5" y="52.5" width="453" height="275" fill="none" stroke="#e0e6ed" stroke-width="1" stroke-opacity="0.4"/>
<rect x="8" y="75" width="454" height="1" fill="#e0e6ed" fill-opacity="0.2"/>
<g id="CheckAll">
<rect x="16" y="56" width="16" height="16" fill="#e0e6ed" fill-opacity="0.18"/>
<rect x="16.5" y="56.5" width="15" height="15" fill="none" stroke="#4ecdc4" stroke-width="1" stroke-opacity="1"/>
<g id="icon/minus" transform="translate(17,57) scale(0.5833)"><path d="M19,13H5V11H19V13Z" fill="#4ecdc4"/></g>
</g>
<rect x="40" y="53" width="1" height="22" fill="#e0e6ed" fill-opacity="0.1"/>
<text x="48" y="67.6" font-family="JetBrains Mono" font-size="10" font-weight="700" fill="#8791a6" text-anchor="start" xml:space="preserve">Name</text>
<rect x="430" y="53" width="1" height="22" fill="#e0e6ed" fill-opacity="0.1"/>
<text x="446" y="67.6" font-family="JetBrains Mono" font-size="10" font-weight="700" fill="#8791a6" text-anchor="middle" xml:space="preserve">St</text>
<g id="Row/normal GitRepo.cpp">
<g id="Checkbox/checked">
<rect x="16" y="80" width="16" height="16" fill="#4ecdc4"/>
<g id="icon/check" transform="translate(17,81) scale(0.5833)"><path d="M21,7L9,19L3.5,13.5L4.91,12.09L9,16.17L19.59,5.59L21,7Z" fill="#181c22"/></g>
</g>
<text x="48" y="92.3" font-family="JetBrains Mono" font-size="12" font-weight="400" fill="#6a85ff" xml:space="preserve">GitRepo.cpp</text>
<text x="135" y="92.0" font-family="JetBrains Mono" font-size="11" font-weight="400" fill="#8791a6" xml:space="preserve">src/core/</text>
<g id="StatusPill/M">
<rect x="438" y="80" width="16" height="16" fill="#6a85ff" fill-opacity="0.18"/>
<text x="446" y="91.6" font-family="JetBrains Mono" font-size="10" font-weight="700" fill="#6a85ff" text-anchor="middle" xml:space="preserve">M</text>
</g>
</g>
<g id="Row/normal RemoteSync.cpp">
<g id="Checkbox/checked">
<rect x="16" y="104" width="16" height="16" fill="#4ecdc4"/>
<g id="icon/check" transform="translate(17,105) scale(0.5833)"><path d="M21,7L9,19L3.5,13.5L4.91,12.09L9,16.17L19.59,5.59L21,7Z" fill="#181c22"/></g>
</g>
<text x="48" y="116.3" font-family="JetBrains Mono" font-size="12" font-weight="400" fill="#6a85ff" xml:space="preserve">RemoteSync.cpp</text>
<text x="157" y="116.0" font-family="JetBrains Mono" font-size="11" font-weight="400" fill="#8791a6" xml:space="preserve">src/core/</text>
<g id="StatusPill/M">
<rect x="438" y="104" width="16" height="16" fill="#6a85ff" fill-opacity="0.18"/>
<text x="446" y="115.6" font-family="JetBrains Mono" font-size="10" font-weight="700" fill="#6a85ff" text-anchor="middle" xml:space="preserve">M</text>
</g>
</g>
<g id="Row/selected Toolbar.cpp">
<rect x="9" y="124" width="452" height="24" fill="#e0e6ed" fill-opacity="0.08"/>
<g id="Checkbox/checked">
<rect x="16" y="128" width="16" height="16" fill="#4ecdc4"/>
<g id="icon/check" transform="translate(17,129) scale(0.5833)"><path d="M21,7L9,19L3.5,13.5L4.91,12.09L9,16.17L19.59,5.59L21,7Z" fill="#181c22"/></g>
</g>
<text x="48" y="140.3" font-family="JetBrains Mono" font-size="12" font-weight="400" fill="#4ecdc4" xml:space="preserve">Toolbar.cpp</text>
<text x="135" y="140.0" font-family="JetBrains Mono" font-size="11" font-weight="400" fill="#8791a6" xml:space="preserve">src/ui/</text>
<g id="StatusPill/M">
<rect x="438" y="128" width="16" height="16" fill="#6a85ff" fill-opacity="0.18"/>
<text x="446" y="139.6" font-family="JetBrains Mono" font-size="10" font-weight="700" fill="#6a85ff" text-anchor="middle" xml:space="preserve">M</text>
</g>
</g>
<g id="Row/normal README.md">
<g id="Checkbox/checked">
<rect x="16" y="152" width="16" height="16" fill="#4ecdc4"/>
<g id="icon/check" transform="translate(17,153) scale(0.5833)"><path d="M21,7L9,19L3.5,13.5L4.91,12.09L9,16.17L19.59,5.59L21,7Z" fill="#181c22"/></g>
</g>
<text x="48" y="164.3" font-family="JetBrains Mono" font-size="12" font-weight="400" fill="#ff7b92" xml:space="preserve">README.md</text>
<text x="121" y="164.0" font-family="JetBrains Mono" font-size="11" font-weight="400" fill="#8791a6" xml:space="preserve">docs/</text>
<g id="StatusPill/D">
<rect x="438" y="152" width="16" height="16" fill="#ff7b92" fill-opacity="0.18"/>
<text x="446" y="163.6" font-family="JetBrains Mono" font-size="10" font-weight="700" fill="#ff7b92" text-anchor="middle" xml:space="preserve">D</text>
</g>
</g>
<g id="Row/normal ui_tests.cpp">
<g id="Checkbox/checked">
<rect x="16" y="176" width="16" height="16" fill="#4ecdc4"/>
<g id="icon/check" transform="translate(17,177) scale(0.5833)"><path d="M21,7L9,19L3.5,13.5L4.91,12.09L9,16.17L19.59,5.59L21,7Z" fill="#181c22"/></g>
</g>
<text x="48" y="188.3" font-family="JetBrains Mono" font-size="12" font-weight="400" fill="#b388eb" xml:space="preserve">ui_tests.cpp</text>
<text x="142" y="188.0" font-family="JetBrains Mono" font-size="11" font-weight="400" fill="#8791a6" xml:space="preserve">tests/</text>
<g id="StatusPill/R">
<rect x="438" y="176" width="16" height="16" fill="#b388eb" fill-opacity="0.18"/>
<text x="446" y="187.6" font-family="JetBrains Mono" font-size="10" font-weight="700" fill="#b388eb" text-anchor="middle" xml:space="preserve">R</text>
</g>
</g>
<g id="Row/normal notes.txt">
<g id="Checkbox/off">
<rect x="16" y="200" width="16" height="16" fill="#e0e6ed" fill-opacity="0.04"/>
<rect x="16.5" y="200.5" width="15" height="15" fill="none" stroke="#e0e6ed" stroke-width="1" stroke-opacity="0.4"/>
</g>
<text x="48" y="212.3" font-family="JetBrains Mono" font-size="12" font-weight="400" fill="#8791a6" xml:space="preserve">notes.txt</text>
<g id="StatusPill/?">
<rect x="438" y="200" width="16" height="16" fill="#8791a6" fill-opacity="0.18"/>
<text x="446" y="211.6" font-family="JetBrains Mono" font-size="10" font-weight="700" fill="#8791a6" text-anchor="middle" xml:space="preserve">?</text>
</g>
</g>
<g id="Row/normal NewWidget.cpp">
<g id="Checkbox/off">
<rect x="16" y="224" width="16" height="16" fill="#e0e6ed" fill-opacity="0.04"/>
<rect x="16.5" y="224.5" width="15" height="15" fill="none" stroke="#e0e6ed" stroke-width="1" stroke-opacity="0.4"/>
</g>
<text x="48" y="236.3" font-family="JetBrains Mono" font-size="12" font-weight="400" fill="#8791a6" xml:space="preserve">NewWidget.cpp</text>
<text x="150" y="236.0" font-family="JetBrains Mono" font-size="11" font-weight="400" fill="#8791a6" xml:space="preserve">src/ui/</text>
<g id="StatusPill/?">
<rect x="438" y="224" width="16" height="16" fill="#8791a6" fill-opacity="0.18"/>
<text x="446" y="235.6" font-family="JetBrains Mono" font-size="10" font-weight="700" fill="#8791a6" text-anchor="middle" xml:space="preserve">?</text>
</g>
</g>
</g>
<g id="MessageBox">
<rect x="8" y="332" width="454" height="28" fill="#e0e6ed" fill-opacity="0.04"/>
<rect x="8.5" y="332.5" width="453" height="27" fill="none" stroke="#e0e6ed" stroke-width="1" stroke-opacity="0.4"/>
<text x="16" y="350.3" font-family="JetBrains Mono" font-size="12" font-weight="400" fill="#8791a6" xml:space="preserve">Commit message</text>
<g id="Generate">
<g id="icon/sparkle" transform="translate(441,339) scale(0.5833)"><path d="M19,1L17.74,3.75L15,5L17.74,6.26L19,9L20.25,6.26L23,5L20.25,3.75M9,4L6.5,9.5L1,12L6.5,14.5L9,20L11.5,14.5L17,12L11.5,9.5M19,15L17.74,17.74L15,19L17.74,20.25L19,23L20.25,20.25L23,19L20.25,17.74" fill="#e0e6ed"/></g>
</g>
</g>
<g id="ActionBar">
<g id="Options">
<rect x="8" y="364" width="28" height="28" id="fill" fill="#e0e6ed" fill-opacity="0.04"/>
<rect x="8.5" y="364.5" width="27" height="27" id="border" fill="none" stroke="#e0e6ed" stroke-width="1" stroke-opacity="0.4"/>
<g id="icon/dots" transform="translate(15,371) scale(0.5833)"><path d="M16,12A2,2 0 0,1 18,10A2,2 0 0,1 20,12A2,2 0 0,1 18,14A2,2 0 0,1 16,12M10,12A2,2 0 0,1 12,10A2,2 0 0,1 14,12A2,2 0 0,1 12,14A2,2 0 0,1 10,12M4,12A2,2 0 0,1 6,10A2,2 0 0,1 8,12A2,2 0 0,1 6,14A2,2 0 0,1 4,12Z" fill="#e0e6ed"/></g>
</g>
<g id="Commit">
<rect x="44" y="364" width="418" height="28" id="fill" fill="#e0e6ed" fill-opacity="0.08"/>
<rect x="44.5" y="364.5" width="417" height="27" id="border" fill="none" stroke="#4ecdc4" stroke-width="1" stroke-opacity="1"/>
<g id="icon/commit" transform="translate(193,371) scale(0.5833)"><path d="M17,12C17,14.42 15.28,16.44 13,16.9V21H11V16.9C8.72,16.44 7,14.42 7,12C7,9.58 8.72,7.56 11,7.1V3H13V7.1C15.28,7.56 17,9.58 17,12M12,9A3,3 0 0,0 9,12A3,3 0 0,0 12,15A3,3 0 0,0 15,12A3,3 0 0,0 12,9Z" fill="#4ecdc4"/></g>
<text x="212" y="382.3" font-family="JetBrains Mono" font-size="12" font-weight="400" fill="#4ecdc4" id="label" xml:space="preserve">Commit 5 files</text>
</g>
</g>
</g>
</svg>