<svg xmlns="http://www.w3.org/2000/svg" id="ChangesTree" width="560" height="300" viewBox="0 0 560 300">
<g id="ChangesTree">
<rect x="0.5" y="0.5" width="559" height="299" fill="none" stroke="#e0e6ed" stroke-width="1" stroke-opacity="0.4"/>
<rect x="0" y="23" width="560" height="1" fill="#e0e6ed" fill-opacity="0.2"/>
<g id="CheckAll">
<rect x="8" y="4" width="16" height="16" fill="#e0e6ed" fill-opacity="0.18"/>
<rect x="8.5" y="4.5" width="15" height="15" fill="none" stroke="#4ecdc4" stroke-width="1" stroke-opacity="1"/>
<g id="icon/minus" transform="translate(9,5) scale(0.5833)"><path d="M19,13H5V11H19V13Z" fill="#4ecdc4"/></g>
</g>
<rect x="32" y="1" width="1" height="22" fill="#e0e6ed" fill-opacity="0.1"/>
<text x="40" y="15.6" font-family="JetBrains Mono" font-size="10" font-weight="700" fill="#8791a6" text-anchor="start" xml:space="preserve">Name</text>
<rect x="456" y="1" width="1" height="22" fill="#e0e6ed" fill-opacity="0.1"/>
<text x="492" y="15.6" font-family="JetBrains Mono" font-size="10" font-weight="700" fill="#8791a6" text-anchor="middle" xml:space="preserve">+ −</text>
<rect x="528" y="1" width="1" height="22" fill="#e0e6ed" fill-opacity="0.1"/>
<text x="544" y="15.6" font-family="JetBrains Mono" font-size="10" font-weight="700" fill="#8791a6" text-anchor="middle" xml:space="preserve">St</text>
<g id="DirRow/open src">
<g id="Checkbox/partial">
<rect x="8" y="28" width="16" height="16" fill="#e0e6ed" fill-opacity="0.18"/>
<rect x="8.5" y="28.5" width="15" height="15" fill="none" stroke="#4ecdc4" stroke-width="1" stroke-opacity="1"/>
<g id="icon/minus" transform="translate(9,29) scale(0.5833)"><path d="M19,13H5V11H19V13Z" fill="#4ecdc4"/></g>
</g>
<g id="icon/chevron" transform="translate(40.75,30.75) scale(0.4375)"><path d="M7.41,8.58L12,13.17L16.59,8.58L18,10L12,16L6,10L7.41,8.58Z" fill="#8791a6"/></g>
<g id="icon/folderOutline" transform="translate(57,29) scale(0.5833)"><path d="M20,18H4V8H20M20,6H12L10,4H4C2.89,4 2,4.89 2,6V18A2,2 0 0,0 4,20H20A2,2 0 0,0 22,18V8C22,6.89 21.1,6 20,6Z" fill="#8791a6"/></g>
<text x="76" y="40.3" font-family="JetBrains Mono" font-size="12" font-weight="400" fill="#e0e6ed" xml:space="preserve">src</text>
</g>
<g id="DirRow/open core">
<g id="Checkbox/checked">
<rect x="8" y="52" width="16" height="16" fill="#4ecdc4"/>
<g id="icon/check" transform="translate(9,53) scale(0.5833)"><path d="M21,7L9,19L3.5,13.5L4.91,12.09L9,16.17L19.59,5.59L21,7Z" fill="#181c22"/></g>
</g>
<g id="icon/chevron" transform="translate(56.75,54.75) scale(0.4375)"><path d="M7.41,8.58L12,13.17L16.59,8.58L18,10L12,16L6,10L7.41,8.58Z" fill="#8791a6"/></g>
<g id="icon/folderOutline" transform="translate(73,53) scale(0.5833)"><path d="M20,18H4V8H20M20,6H12L10,4H4C2.89,4 2,4.89 2,6V18A2,2 0 0,0 4,20H20A2,2 0 0,0 22,18V8C22,6.89 21.1,6 20,6Z" fill="#8791a6"/></g>
<text x="92" y="64.3" font-family="JetBrains Mono" font-size="12" font-weight="400" fill="#e0e6ed" xml:space="preserve">core</text>
</g>
<g id="Row/normal GitRepo.cpp">
<g id="Checkbox/checked">
<rect x="8" y="76" width="16" height="16" fill="#4ecdc4"/>
<g id="icon/check" transform="translate(9,77) scale(0.5833)"><path d="M21,7L9,19L3.5,13.5L4.91,12.09L9,16.17L19.59,5.59L21,7Z" fill="#181c22"/></g>
</g>
<text x="72" y="88.3" font-family="JetBrains Mono" font-size="12" font-weight="400" fill="#6a85ff" xml:space="preserve">GitRepo.cpp</text>
<text x="490" y="88.0" font-family="JetBrains Mono" font-size="11" font-weight="400" fill="#4ecdc4" text-anchor="end" xml:space="preserve">+1</text>
<text x="494" y="88.0" font-family="JetBrains Mono" font-size="11" font-weight="400" fill="#ff7b92" xml:space="preserve">−1</text>
<g id="StatusPill/M">
<rect x="536" y="76" width="16" height="16" fill="#6a85ff" fill-opacity="0.18"/>
<text x="544" y="87.6" font-family="JetBrains Mono" font-size="10" font-weight="700" fill="#6a85ff" text-anchor="middle" xml:space="preserve">M</text>
</g>
</g>
<g id="Row/normal RemoteSync.cpp">
<g id="Checkbox/checked">
<rect x="8" y="100" width="16" height="16" fill="#4ecdc4"/>
<g id="icon/check" transform="translate(9,101) scale(0.5833)"><path d="M21,7L9,19L3.5,13.5L4.91,12.09L9,16.17L19.59,5.59L21,7Z" fill="#181c22"/></g>
</g>
<text x="72" y="112.3" font-family="JetBrains Mono" font-size="12" font-weight="400" fill="#6a85ff" xml:space="preserve">RemoteSync.cpp</text>
<text x="490" y="112.0" font-family="JetBrains Mono" font-size="11" font-weight="400" fill="#4ecdc4" text-anchor="end" xml:space="preserve">+1</text>
<text x="494" y="112.0" font-family="JetBrains Mono" font-size="11" font-weight="400" fill="#ff7b92" xml:space="preserve">−0</text>
<g id="StatusPill/M">
<rect x="536" y="100" width="16" height="16" fill="#6a85ff" fill-opacity="0.18"/>
<text x="544" y="111.6" font-family="JetBrains Mono" font-size="10" font-weight="700" fill="#6a85ff" text-anchor="middle" xml:space="preserve">M</text>
</g>
</g>
<g id="DirRow/open ui">
<g id="Checkbox/partial">
<rect x="8" y="124" width="16" height="16" fill="#e0e6ed" fill-opacity="0.18"/>
<rect x="8.5" y="124.5" width="15" height="15" fill="none" stroke="#4ecdc4" stroke-width="1" stroke-opacity="1"/>
<g id="icon/minus" transform="translate(9,125) scale(0.5833)"><path d="M19,13H5V11H19V13Z" fill="#4ecdc4"/></g>
</g>
<g id="icon/chevron" transform="translate(56.75,126.75) scale(0.4375)"><path d="M7.41,8.58L12,13.17L16.59,8.58L18,10L12,16L6,10L7.41,8.58Z" fill="#8791a6"/></g>
<g id="icon/folderOutline" transform="translate(73,125) scale(0.5833)"><path d="M20,18H4V8H20M20,6H12L10,4H4C2.89,4 2,4.89 2,6V18A2,2 0 0,0 4,20H20A2,2 0 0,0 22,18V8C22,6.89 21.1,6 20,6Z" fill="#8791a6"/></g>
<text x="92" y="136.3" font-family="JetBrains Mono" font-size="12" font-weight="400" fill="#e0e6ed" xml:space="preserve">ui</text>
</g>
<g id="Row/selected Toolbar.cpp">
<rect x="1" y="144" width="558" height="24" fill="#e0e6ed" fill-opacity="0.08"/>
<g id="Checkbox/checked">
<rect x="8" y="148" width="16" height="16" fill="#4ecdc4"/>
<g id="icon/check" transform="translate(9,149) scale(0.5833)"><path d="M21,7L9,19L3.5,13.5L4.91,12.09L9,16.17L19.59,5.59L21,7Z" fill="#181c22"/></g>
</g>
<text x="72" y="160.3" font-family="JetBrains Mono" font-size="12" font-weight="400" fill="#4ecdc4" xml:space="preserve">Toolbar.cpp</text>
<text x="490" y="160.0" font-family="JetBrains Mono" font-size="11" font-weight="400" fill="#4ecdc4" text-anchor="end" xml:space="preserve">+4</text>
<text x="494" y="160.0" font-family="JetBrains Mono" font-size="11" font-weight="400" fill="#ff7b92" xml:space="preserve">−2</text>
<g id="StatusPill/M">
<rect x="536" y="148" width="16" height="16" fill="#6a85ff" fill-opacity="0.18"/>
<text x="544" y="159.6" font-family="JetBrains Mono" font-size="10" font-weight="700" fill="#6a85ff" text-anchor="middle" xml:space="preserve">M</text>
</g>
</g>
<g id="Row/normal NewWidget.cpp">
<g id="Checkbox/off">
<rect x="8" y="172" width="16" height="16" fill="#e0e6ed" fill-opacity="0.04"/>
<rect x="8.5" y="172.5" width="15" height="15" fill="none" stroke="#e0e6ed" stroke-width="1" stroke-opacity="0.4"/>
</g>
<text x="72" y="184.3" font-family="JetBrains Mono" font-size="12" font-weight="400" fill="#8791a6" xml:space="preserve">NewWidget.cpp</text>
<g id="StatusPill/?">
<rect x="536" y="172" width="16" height="16" fill="#8791a6" fill-opacity="0.18"/>
<text x="544" y="183.6" font-family="JetBrains Mono" font-size="10" font-weight="700" fill="#8791a6" text-anchor="middle" xml:space="preserve">?</text>
</g>
</g>
<g id="DirRow/open docs">
<g id="Checkbox/checked">
<rect x="8" y="196" width="16" height="16" fill="#4ecdc4"/>
<g id="icon/check" transform="translate(9,197) scale(0.5833)"><path d="M21,7L9,19L3.5,13.5L4.91,12.09L9,16.17L19.59,5.59L21,7Z" fill="#181c22"/></g>
</g>
<g id="icon/chevron" transform="translate(40.75,198.75) scale(0.4375)"><path d="M7.41,8.58L12,13.17L16.59,8.58L18,10L12,16L6,10L7.41,8.58Z" fill="#8791a6"/></g>
<g id="icon/folderOutline" transform="translate(57,197) scale(0.5833)"><path d="M20,18H4V8H20M20,6H12L10,4H4C2.89,4 2,4.89 2,6V18A2,2 0 0,0 4,20H20A2,2 0 0,0 22,18V8C22,6.89 21.1,6 20,6Z" fill="#8791a6"/></g>
<text x="76" y="208.3" font-family="JetBrains Mono" font-size="12" font-weight="400" fill="#e0e6ed" xml:space="preserve">docs</text>
</g>
<g id="Row/normal README.md">
<g id="Checkbox/checked">
<rect x="8" y="220" width="16" height="16" fill="#4ecdc4"/>
<g id="icon/check" transform="translate(9,221) scale(0.5833)"><path d="M21,7L9,19L3.5,13.5L4.91,12.09L9,16.17L19.59,5.59L21,7Z" fill="#181c22"/></g>
</g>
<text x="56" y="232.3" font-family="JetBrains Mono" font-size="12" font-weight="400" fill="#ff7b92" xml:space="preserve">README.md</text>
<text x="490" y="232.0" font-family="JetBrains Mono" font-size="11" font-weight="400" fill="#4ecdc4" text-anchor="end" xml:space="preserve">+0</text>
<text x="494" y="232.0" font-family="JetBrains Mono" font-size="11" font-weight="400" fill="#ff7b92" xml:space="preserve">−60</text>
<g id="StatusPill/D">
<rect x="536" y="220" width="16" height="16" fill="#ff7b92" fill-opacity="0.18"/>
<text x="544" y="231.6" font-family="JetBrains Mono" font-size="10" font-weight="700" fill="#ff7b92" text-anchor="middle" xml:space="preserve">D</text>
</g>
</g>
<g id="DirRow/collapsed tests">
<g id="Checkbox/checked">
<rect x="8" y="244" width="16" height="16" fill="#4ecdc4"/>
<g id="icon/check" transform="translate(9,245) scale(0.5833)"><path d="M21,7L9,19L3.5,13.5L4.91,12.09L9,16.17L19.59,5.59L21,7Z" fill="#181c22"/></g>
</g>
<g id="icon/chevronR" transform="translate(40.75,246.75) scale(0.4375)"><path d="M8.59,16.58L13.17,12L8.59,7.41L10,6L16,12L10,18L8.59,16.58Z" fill="#8791a6"/></g>
<g id="icon/folderOutline" transform="translate(57,245) scale(0.5833)"><path d="M20,18H4V8H20M20,6H12L10,4H4C2.89,4 2,4.89 2,6V18A2,2 0 0,0 4,20H20A2,2 0 0,0 22,18V8C22,6.89 21.1,6 20,6Z" fill="#8791a6"/></g>
<text x="76" y="256.3" font-family="JetBrains Mono" font-size="12" font-weight="400" fill="#e0e6ed" xml:space="preserve">tests</text>
<text x="120" y="256.0" font-family="JetBrains Mono" font-size="11" font-weight="400" fill="#8791a6" xml:space="preserve">1 file</text>
</g>
<g id="Row/normal notes.txt">
<g id="Checkbox/off">
<rect x="8" y="268" width="16" height="16" fill="#e0e6ed" fill-opacity="0.04"/>
<rect x="8.5" y="268.5" width="15" height="15" fill="none" stroke="#e0e6ed" stroke-width="1" stroke-opacity="0.4"/>
</g>
<text x="40" y="280.3" font-family="JetBrains Mono" font-size="12" font-weight="400" fill="#8791a6" xml:space="preserve">notes.txt</text>
<g id="StatusPill/?">
<rect x="536" y="268" width="16" height="16" fill="#8791a6" fill-opacity="0.18"/>
<text x="544" y="279.6" font-family="JetBrains Mono" font-size="10" font-weight="700" fill="#8791a6" text-anchor="middle" xml:space="preserve">?</text>
</g>
</g>
</g>
</svg>